# xmcd
# Copyright (C) 1995-1998 Ti Kan
#
# Track frame offsets:
#       150
#       28670
#       49935
#       77785
#       101633
#       118663
#       139948
#       167478
#       192035
#       213098
#       225983
#       245450
#       265278
#       288220
#
# Disc length: 3930 seconds
#
# Revision: 1
# Processed by: cddbd v1.5.2PL0 Copyright (c) Steve Scherf et al.
# Submitted via: CD-Import v1.0
#
DISCID=bb0f580e
DTITLE=Klaus Lage and Bo Heart - Klaus Lage and Bo Heart Live Zu Zweit
DYEAR=1999
DGENRE=
TTITLE0=Fang Neu An
TTITLE1=Anker Auf
TTITLE2=Der Sänger
TTITLE3=Halt Aus
TTITLE4=Positiv
TTITLE5=Bukowski
TTITLE6=Du Und Der Blues
TTITLE7=Schweissperlen
TTITLE8=Mit Meinen Augen
TTITLE9=Du Hast'n Freund In Mir
TTITLE10=Bo's Variationen
TTITLE11=Die Liebe Bleibt
TTITLE12=Schweigen
TTITLE13=wie Wir Damals Indianer Spielten,
EXTD=
EXTT0=
EXTT1=
EXTT2=
EXTT3=
EXTT4=
EXTT5=
EXTT6=
EXTT7=
EXTT8=
EXTT9=
EXTT10=
EXTT11=
EXTT12=
EXTT13=
PLAYORDER=
